G04 #@! TF.GenerationSoftware,KiCad,Pcbnew,(5.1.6)-1*
G04 #@! TF.CreationDate,2020-08-20T18:03:11-07:00*
G04 #@! TF.ProjectId,dualscreen_sp,6475616c-7363-4726-9565-6e5f73702e6b,rev?*
G04 #@! TF.SameCoordinates,Original*
G04 #@! TF.FileFunction,Legend,Top*
G04 #@! TF.FilePolarity,Positive*
%FSLAX46Y46*%
G04 Gerber Fmt 4.6, Leading zero omitted, Abs format (unit mm)*
G04 Created by KiCad (PCBNEW (5.1.6)-1) date 2020-08-20 18:03:11*
%MOMM*%
%LPD*%
G01*
G04 APERTURE LIST*
%ADD10C,0.250000*%
%ADD11C,0.150000*%
%ADD12C,0.120000*%
G04 APERTURE END LIST*
D10*
X16007142Y232142D02*
X16007142Y860714D01*
X15950000Y975000D01*
X15835714Y1032142D01*
X15607142Y1032142D01*
X15492857Y975000D01*
X16007142Y289285D02*
X15892857Y232142D01*
X15607142Y232142D01*
X15492857Y289285D01*
X15435714Y403571D01*
X15435714Y517857D01*
X15492857Y632142D01*
X15607142Y689285D01*
X15892857Y689285D01*
X16007142Y746428D01*
X16750000Y232142D02*
X16635714Y289285D01*
X16578571Y403571D01*
X16578571Y1432142D01*
X17378571Y232142D02*
X17264285Y289285D01*
X17207142Y403571D01*
X17207142Y1432142D01*
X19264285Y289285D02*
X19150000Y232142D01*
X18921428Y232142D01*
X18807142Y289285D01*
X18750000Y346428D01*
X18692857Y460714D01*
X18692857Y803571D01*
X18750000Y917857D01*
X18807142Y975000D01*
X18921428Y1032142D01*
X19150000Y1032142D01*
X19264285Y975000D01*
X19950000Y232142D02*
X19835714Y289285D01*
X19778571Y346428D01*
X19721428Y460714D01*
X19721428Y803571D01*
X19778571Y917857D01*
X19835714Y975000D01*
X19950000Y1032142D01*
X20121428Y1032142D01*
X20235714Y975000D01*
X20292857Y917857D01*
X20350000Y803571D01*
X20350000Y460714D01*
X20292857Y346428D01*
X20235714Y289285D01*
X20121428Y232142D01*
X19950000Y232142D01*
X20864285Y1032142D02*
X20864285Y232142D01*
X20864285Y917857D02*
X20921428Y975000D01*
X21035714Y1032142D01*
X21207142Y1032142D01*
X21321428Y975000D01*
X21378571Y860714D01*
X21378571Y232142D01*
X21950000Y1032142D02*
X21950000Y232142D01*
X21950000Y917857D02*
X22007142Y975000D01*
X22121428Y1032142D01*
X22292857Y1032142D01*
X22407142Y975000D01*
X22464285Y860714D01*
X22464285Y232142D01*
X23492857Y289285D02*
X23378571Y232142D01*
X23150000Y232142D01*
X23035714Y289285D01*
X22978571Y403571D01*
X22978571Y860714D01*
X23035714Y975000D01*
X23150000Y1032142D01*
X23378571Y1032142D01*
X23492857Y975000D01*
X23550000Y860714D01*
X23550000Y746428D01*
X22978571Y632142D01*
X24578571Y289285D02*
X24464285Y232142D01*
X24235714Y232142D01*
X24121428Y289285D01*
X24064285Y346428D01*
X24007142Y460714D01*
X24007142Y803571D01*
X24064285Y917857D01*
X24121428Y975000D01*
X24235714Y1032142D01*
X24464285Y1032142D01*
X24578571Y975000D01*
X24921428Y1032142D02*
X25378571Y1032142D01*
X25092857Y1432142D02*
X25092857Y403571D01*
X25150000Y289285D01*
X25264285Y232142D01*
X25378571Y232142D01*
X25950000Y232142D02*
X25835714Y289285D01*
X25778571Y346428D01*
X25721428Y460714D01*
X25721428Y803571D01*
X25778571Y917857D01*
X25835714Y975000D01*
X25950000Y1032142D01*
X26121428Y1032142D01*
X26235714Y975000D01*
X26292857Y917857D01*
X26350000Y803571D01*
X26350000Y460714D01*
X26292857Y346428D01*
X26235714Y289285D01*
X26121428Y232142D01*
X25950000Y232142D01*
X26864285Y232142D02*
X26864285Y1032142D01*
X26864285Y803571D02*
X26921428Y917857D01*
X26978571Y975000D01*
X27092857Y1032142D01*
X27207142Y1032142D01*
X27550000Y289285D02*
X27664285Y232142D01*
X27892857Y232142D01*
X28007142Y289285D01*
X28064285Y403571D01*
X28064285Y460714D01*
X28007142Y575000D01*
X27892857Y632142D01*
X27721428Y632142D01*
X27607142Y689285D01*
X27550000Y803571D01*
X27550000Y860714D01*
X27607142Y975000D01*
X27721428Y1032142D01*
X27892857Y1032142D01*
X28007142Y975000D01*
X17464285Y-1017857D02*
X17464285Y-2217857D01*
X17464285Y-1075000D02*
X17578571Y-1017857D01*
X17807142Y-1017857D01*
X17921428Y-1075000D01*
X17978571Y-1132142D01*
X18035714Y-1246428D01*
X18035714Y-1589285D01*
X17978571Y-1703571D01*
X17921428Y-1760714D01*
X17807142Y-1817857D01*
X17578571Y-1817857D01*
X17464285Y-1760714D01*
X18550000Y-1817857D02*
X18550000Y-1017857D01*
X18550000Y-617857D02*
X18492857Y-675000D01*
X18550000Y-732142D01*
X18607142Y-675000D01*
X18550000Y-617857D01*
X18550000Y-732142D01*
X19121428Y-1017857D02*
X19121428Y-1817857D01*
X19121428Y-1132142D02*
X19178571Y-1075000D01*
X19292857Y-1017857D01*
X19464285Y-1017857D01*
X19578571Y-1075000D01*
X19635714Y-1189285D01*
X19635714Y-1817857D01*
X20150000Y-1760714D02*
X20264285Y-1817857D01*
X20492857Y-1817857D01*
X20607142Y-1760714D01*
X20664285Y-1646428D01*
X20664285Y-1589285D01*
X20607142Y-1475000D01*
X20492857Y-1417857D01*
X20321428Y-1417857D01*
X20207142Y-1360714D01*
X20150000Y-1246428D01*
X20150000Y-1189285D01*
X20207142Y-1075000D01*
X20321428Y-1017857D01*
X20492857Y-1017857D01*
X20607142Y-1075000D01*
X22607142Y-1817857D02*
X22607142Y-617857D01*
X22607142Y-1760714D02*
X22492857Y-1817857D01*
X22264285Y-1817857D01*
X22150000Y-1760714D01*
X22092857Y-1703571D01*
X22035714Y-1589285D01*
X22035714Y-1246428D01*
X22092857Y-1132142D01*
X22150000Y-1075000D01*
X22264285Y-1017857D01*
X22492857Y-1017857D01*
X22607142Y-1075000D01*
X23350000Y-1817857D02*
X23235714Y-1760714D01*
X23178571Y-1703571D01*
X23121428Y-1589285D01*
X23121428Y-1246428D01*
X23178571Y-1132142D01*
X23235714Y-1075000D01*
X23350000Y-1017857D01*
X23521428Y-1017857D01*
X23635714Y-1075000D01*
X23692857Y-1132142D01*
X23750000Y-1246428D01*
X23750000Y-1589285D01*
X23692857Y-1703571D01*
X23635714Y-1760714D01*
X23521428Y-1817857D01*
X23350000Y-1817857D01*
X24150000Y-1017857D02*
X24378571Y-1817857D01*
X24607142Y-1246428D01*
X24835714Y-1817857D01*
X25064285Y-1017857D01*
X25521428Y-1017857D02*
X25521428Y-1817857D01*
X25521428Y-1132142D02*
X25578571Y-1075000D01*
X25692857Y-1017857D01*
X25864285Y-1017857D01*
X25978571Y-1075000D01*
X26035714Y-1189285D01*
X26035714Y-1817857D01*
D11*
X8452380Y-20853571D02*
X8595238Y-20901190D01*
X8642857Y-20948809D01*
X8690476Y-21044047D01*
X8690476Y-21186904D01*
X8642857Y-21282142D01*
X8595238Y-21329761D01*
X8500000Y-21377380D01*
X8119047Y-21377380D01*
X8119047Y-20377380D01*
X8452380Y-20377380D01*
X8547619Y-20425000D01*
X8595238Y-20472619D01*
X8642857Y-20567857D01*
X8642857Y-20663095D01*
X8595238Y-20758333D01*
X8547619Y-20805952D01*
X8452380Y-20853571D01*
X8119047Y-20853571D01*
X9547619Y-21377380D02*
X9547619Y-20853571D01*
X9500000Y-20758333D01*
X9404761Y-20710714D01*
X9214285Y-20710714D01*
X9119047Y-20758333D01*
X9547619Y-21329761D02*
X9452380Y-21377380D01*
X9214285Y-21377380D01*
X9119047Y-21329761D01*
X9071428Y-21234523D01*
X9071428Y-21139285D01*
X9119047Y-21044047D01*
X9214285Y-20996428D01*
X9452380Y-20996428D01*
X9547619Y-20948809D01*
X10452380Y-21329761D02*
X10357142Y-21377380D01*
X10166666Y-21377380D01*
X10071428Y-21329761D01*
X10023809Y-21282142D01*
X9976190Y-21186904D01*
X9976190Y-20901190D01*
X10023809Y-20805952D01*
X10071428Y-20758333D01*
X10166666Y-20710714D01*
X10357142Y-20710714D01*
X10452380Y-20758333D01*
X10880952Y-21377380D02*
X10880952Y-20377380D01*
X10976190Y-20996428D02*
X11261904Y-21377380D01*
X11261904Y-20710714D02*
X10880952Y-21091666D01*
X11833333Y-21377380D02*
X11738095Y-21329761D01*
X11690476Y-21234523D01*
X11690476Y-20377380D01*
X12214285Y-21377380D02*
X12214285Y-20710714D01*
X12214285Y-20377380D02*
X12166666Y-20425000D01*
X12214285Y-20472619D01*
X12261904Y-20425000D01*
X12214285Y-20377380D01*
X12214285Y-20472619D01*
X13119047Y-20710714D02*
X13119047Y-21520238D01*
X13071428Y-21615476D01*
X13023809Y-21663095D01*
X12928571Y-21710714D01*
X12785714Y-21710714D01*
X12690476Y-21663095D01*
X13119047Y-21329761D02*
X13023809Y-21377380D01*
X12833333Y-21377380D01*
X12738095Y-21329761D01*
X12690476Y-21282142D01*
X12642857Y-21186904D01*
X12642857Y-20901190D01*
X12690476Y-20805952D01*
X12738095Y-20758333D01*
X12833333Y-20710714D01*
X13023809Y-20710714D01*
X13119047Y-20758333D01*
X13595238Y-21377380D02*
X13595238Y-20377380D01*
X14023809Y-21377380D02*
X14023809Y-20853571D01*
X13976190Y-20758333D01*
X13880952Y-20710714D01*
X13738095Y-20710714D01*
X13642857Y-20758333D01*
X13595238Y-20805952D01*
X14357142Y-20710714D02*
X14738095Y-20710714D01*
X14500000Y-20377380D02*
X14500000Y-21234523D01*
X14547619Y-21329761D01*
X14642857Y-21377380D01*
X14738095Y-21377380D01*
X15785714Y-20329761D02*
X14928571Y-21615476D01*
X16452380Y-20853571D02*
X16119047Y-20853571D01*
X16119047Y-21377380D02*
X16119047Y-20377380D01*
X16595238Y-20377380D01*
X16976190Y-21377380D02*
X16976190Y-20710714D01*
X16976190Y-20901190D02*
X17023809Y-20805952D01*
X17071428Y-20758333D01*
X17166666Y-20710714D01*
X17261904Y-20710714D01*
X17738095Y-21377380D02*
X17642857Y-21329761D01*
X17595238Y-21282142D01*
X17547619Y-21186904D01*
X17547619Y-20901190D01*
X17595238Y-20805952D01*
X17642857Y-20758333D01*
X17738095Y-20710714D01*
X17880952Y-20710714D01*
X17976190Y-20758333D01*
X18023809Y-20805952D01*
X18071428Y-20901190D01*
X18071428Y-21186904D01*
X18023809Y-21282142D01*
X17976190Y-21329761D01*
X17880952Y-21377380D01*
X17738095Y-21377380D01*
X18500000Y-20710714D02*
X18500000Y-21377380D01*
X18500000Y-20805952D02*
X18547619Y-20758333D01*
X18642857Y-20710714D01*
X18785714Y-20710714D01*
X18880952Y-20758333D01*
X18928571Y-20853571D01*
X18928571Y-21377380D01*
X19261904Y-20710714D02*
X19642857Y-20710714D01*
X19404761Y-20377380D02*
X19404761Y-21234523D01*
X19452380Y-21329761D01*
X19547619Y-21377380D01*
X19642857Y-21377380D01*
X20119047Y-21377380D02*
X20023809Y-21329761D01*
X19976190Y-21234523D01*
X19976190Y-20377380D01*
X20500000Y-21377380D02*
X20500000Y-20710714D01*
X20500000Y-20377380D02*
X20452380Y-20425000D01*
X20500000Y-20472619D01*
X20547619Y-20425000D01*
X20500000Y-20377380D01*
X20500000Y-20472619D01*
X21404761Y-20710714D02*
X21404761Y-21520238D01*
X21357142Y-21615476D01*
X21309523Y-21663095D01*
X21214285Y-21710714D01*
X21071428Y-21710714D01*
X20976190Y-21663095D01*
X21404761Y-21329761D02*
X21309523Y-21377380D01*
X21119047Y-21377380D01*
X21023809Y-21329761D01*
X20976190Y-21282142D01*
X20928571Y-21186904D01*
X20928571Y-20901190D01*
X20976190Y-20805952D01*
X21023809Y-20758333D01*
X21119047Y-20710714D01*
X21309523Y-20710714D01*
X21404761Y-20758333D01*
X21880952Y-21377380D02*
X21880952Y-20377380D01*
X22309523Y-21377380D02*
X22309523Y-20853571D01*
X22261904Y-20758333D01*
X22166666Y-20710714D01*
X22023809Y-20710714D01*
X21928571Y-20758333D01*
X21880952Y-20805952D01*
X22642857Y-20710714D02*
X23023809Y-20710714D01*
X22785714Y-20377380D02*
X22785714Y-21234523D01*
X22833333Y-21329761D01*
X22928571Y-21377380D01*
X23023809Y-21377380D01*
X10642857Y-23408333D02*
X10595238Y-23360714D01*
X10500000Y-23217857D01*
X10452380Y-23122619D01*
X10404761Y-22979761D01*
X10357142Y-22741666D01*
X10357142Y-22551190D01*
X10404761Y-22313095D01*
X10452380Y-22170238D01*
X10500000Y-22075000D01*
X10595238Y-21932142D01*
X10642857Y-21884523D01*
X11404761Y-22979761D02*
X11309523Y-23027380D01*
X11119047Y-23027380D01*
X11023809Y-22979761D01*
X10976190Y-22884523D01*
X10976190Y-22503571D01*
X11023809Y-22408333D01*
X11119047Y-22360714D01*
X11309523Y-22360714D01*
X11404761Y-22408333D01*
X11452380Y-22503571D01*
X11452380Y-22598809D01*
X10976190Y-22694047D01*
X11880952Y-23027380D02*
X11880952Y-22360714D01*
X11880952Y-22455952D02*
X11928571Y-22408333D01*
X12023809Y-22360714D01*
X12166666Y-22360714D01*
X12261904Y-22408333D01*
X12309523Y-22503571D01*
X12309523Y-23027380D01*
X12309523Y-22503571D02*
X12357142Y-22408333D01*
X12452380Y-22360714D01*
X12595238Y-22360714D01*
X12690476Y-22408333D01*
X12738095Y-22503571D01*
X12738095Y-23027380D01*
X13214285Y-22360714D02*
X13214285Y-23360714D01*
X13214285Y-22408333D02*
X13309523Y-22360714D01*
X13500000Y-22360714D01*
X13595238Y-22408333D01*
X13642857Y-22455952D01*
X13690476Y-22551190D01*
X13690476Y-22836904D01*
X13642857Y-22932142D01*
X13595238Y-22979761D01*
X13500000Y-23027380D01*
X13309523Y-23027380D01*
X13214285Y-22979761D01*
X13976190Y-22360714D02*
X14357142Y-22360714D01*
X14119047Y-22027380D02*
X14119047Y-22884523D01*
X14166666Y-22979761D01*
X14261904Y-23027380D01*
X14357142Y-23027380D01*
X14595238Y-22360714D02*
X14833333Y-23027380D01*
X15071428Y-22360714D02*
X14833333Y-23027380D01*
X14738095Y-23265476D01*
X14690476Y-23313095D01*
X14595238Y-23360714D01*
X16214285Y-23027380D02*
X16214285Y-22360714D01*
X16214285Y-22027380D02*
X16166666Y-22075000D01*
X16214285Y-22122619D01*
X16261904Y-22075000D01*
X16214285Y-22027380D01*
X16214285Y-22122619D01*
X16547619Y-22360714D02*
X16928571Y-22360714D01*
X16690476Y-23027380D02*
X16690476Y-22170238D01*
X16738095Y-22075000D01*
X16833333Y-22027380D01*
X16928571Y-22027380D01*
X18023809Y-23027380D02*
X18023809Y-22027380D01*
X18500000Y-23027380D02*
X18500000Y-22027380D01*
X18880952Y-22027380D01*
X18976190Y-22075000D01*
X19023809Y-22122619D01*
X19071428Y-22217857D01*
X19071428Y-22360714D01*
X19023809Y-22455952D01*
X18976190Y-22503571D01*
X18880952Y-22551190D01*
X18500000Y-22551190D01*
X19452380Y-22979761D02*
X19595238Y-23027380D01*
X19833333Y-23027380D01*
X19928571Y-22979761D01*
X19976190Y-22932142D01*
X20023809Y-22836904D01*
X20023809Y-22741666D01*
X19976190Y-22646428D01*
X19928571Y-22598809D01*
X19833333Y-22551190D01*
X19642857Y-22503571D01*
X19547619Y-22455952D01*
X19500000Y-22408333D01*
X19452380Y-22313095D01*
X19452380Y-22217857D01*
X19500000Y-22122619D01*
X19547619Y-22075000D01*
X19642857Y-22027380D01*
X19880952Y-22027380D01*
X20023809Y-22075000D01*
X20357142Y-23408333D02*
X20404761Y-23360714D01*
X20500000Y-23217857D01*
X20547619Y-23122619D01*
X20595238Y-22979761D01*
X20642857Y-22741666D01*
X20642857Y-22551190D01*
X20595238Y-22313095D01*
X20547619Y-22170238D01*
X20500000Y-22075000D01*
X20404761Y-21932142D01*
X20357142Y-21884523D01*
D10*
X-7095238Y-9827380D02*
X-7571428Y-9827380D01*
X-7619047Y-10303571D01*
X-7571428Y-10255952D01*
X-7476190Y-10208333D01*
X-7238095Y-10208333D01*
X-7142857Y-10255952D01*
X-7095238Y-10303571D01*
X-7047619Y-10398809D01*
X-7047619Y-10636904D01*
X-7095238Y-10732142D01*
X-7142857Y-10779761D01*
X-7238095Y-10827380D01*
X-7476190Y-10827380D01*
X-7571428Y-10779761D01*
X-7619047Y-10732142D01*
X-6714285Y-10160714D02*
X-6476190Y-10827380D01*
X-6238095Y-10160714D01*
X-5095238Y-10827380D02*
X-5095238Y-10160714D01*
X-5095238Y-9827380D02*
X-5142857Y-9875000D01*
X-5095238Y-9922619D01*
X-5047619Y-9875000D01*
X-5095238Y-9827380D01*
X-5095238Y-9922619D01*
X-4619047Y-10160714D02*
X-4619047Y-10827380D01*
X-4619047Y-10255952D02*
X-4571428Y-10208333D01*
X-4476190Y-10160714D01*
X-4333333Y-10160714D01*
X-4238095Y-10208333D01*
X-4190476Y-10303571D01*
X-4190476Y-10827380D01*
X-10357142Y-12958333D02*
X-10404761Y-12910714D01*
X-10500000Y-12767857D01*
X-10547619Y-12672619D01*
X-10595238Y-12529761D01*
X-10642857Y-12291666D01*
X-10642857Y-12101190D01*
X-10595238Y-11863095D01*
X-10547619Y-11720238D01*
X-10500000Y-11625000D01*
X-10404761Y-11482142D01*
X-10357142Y-11434523D01*
X-9976190Y-11910714D02*
X-9976190Y-12767857D01*
X-10023809Y-12863095D01*
X-10119047Y-12910714D01*
X-10166666Y-12910714D01*
X-9976190Y-11577380D02*
X-10023809Y-11625000D01*
X-9976190Y-11672619D01*
X-9928571Y-11625000D01*
X-9976190Y-11577380D01*
X-9976190Y-11672619D01*
X-9071428Y-11910714D02*
X-9071428Y-12577380D01*
X-9500000Y-11910714D02*
X-9500000Y-12434523D01*
X-9452380Y-12529761D01*
X-9357142Y-12577380D01*
X-9214285Y-12577380D01*
X-9119047Y-12529761D01*
X-9071428Y-12482142D01*
X-8595238Y-12577380D02*
X-8595238Y-11910714D01*
X-8595238Y-12005952D02*
X-8547619Y-11958333D01*
X-8452380Y-11910714D01*
X-8309523Y-11910714D01*
X-8214285Y-11958333D01*
X-8166666Y-12053571D01*
X-8166666Y-12577380D01*
X-8166666Y-12053571D02*
X-8119047Y-11958333D01*
X-8023809Y-11910714D01*
X-7880952Y-11910714D01*
X-7785714Y-11958333D01*
X-7738095Y-12053571D01*
X-7738095Y-12577380D01*
X-7261904Y-11910714D02*
X-7261904Y-12910714D01*
X-7261904Y-11958333D02*
X-7166666Y-11910714D01*
X-6976190Y-11910714D01*
X-6880952Y-11958333D01*
X-6833333Y-12005952D01*
X-6785714Y-12101190D01*
X-6785714Y-12386904D01*
X-6833333Y-12482142D01*
X-6880952Y-12529761D01*
X-6976190Y-12577380D01*
X-7166666Y-12577380D01*
X-7261904Y-12529761D01*
X-5976190Y-12529761D02*
X-6071428Y-12577380D01*
X-6261904Y-12577380D01*
X-6357142Y-12529761D01*
X-6404761Y-12434523D01*
X-6404761Y-12053571D01*
X-6357142Y-11958333D01*
X-6261904Y-11910714D01*
X-6071428Y-11910714D01*
X-5976190Y-11958333D01*
X-5928571Y-12053571D01*
X-5928571Y-12148809D01*
X-6404761Y-12244047D01*
X-5500000Y-12577380D02*
X-5500000Y-11910714D01*
X-5500000Y-12101190D02*
X-5452380Y-12005952D01*
X-5404761Y-11958333D01*
X-5309523Y-11910714D01*
X-5214285Y-11910714D01*
X-3976190Y-12577380D02*
X-4071428Y-12529761D01*
X-4119047Y-12482142D01*
X-4166666Y-12386904D01*
X-4166666Y-12101190D01*
X-4119047Y-12005952D01*
X-4071428Y-11958333D01*
X-3976190Y-11910714D01*
X-3833333Y-11910714D01*
X-3738095Y-11958333D01*
X-3690476Y-12005952D01*
X-3642857Y-12101190D01*
X-3642857Y-12386904D01*
X-3690476Y-12482142D01*
X-3738095Y-12529761D01*
X-3833333Y-12577380D01*
X-3976190Y-12577380D01*
X-3214285Y-11910714D02*
X-3214285Y-12910714D01*
X-3214285Y-11958333D02*
X-3119047Y-11910714D01*
X-2928571Y-11910714D01*
X-2833333Y-11958333D01*
X-2785714Y-12005952D01*
X-2738095Y-12101190D01*
X-2738095Y-12386904D01*
X-2785714Y-12482142D01*
X-2833333Y-12529761D01*
X-2928571Y-12577380D01*
X-3119047Y-12577380D01*
X-3214285Y-12529761D01*
X-1928571Y-12529761D02*
X-2023809Y-12577380D01*
X-2214285Y-12577380D01*
X-2309523Y-12529761D01*
X-2357142Y-12434523D01*
X-2357142Y-12053571D01*
X-2309523Y-11958333D01*
X-2214285Y-11910714D01*
X-2023809Y-11910714D01*
X-1928571Y-11958333D01*
X-1880952Y-12053571D01*
X-1880952Y-12148809D01*
X-2357142Y-12244047D01*
X-1452380Y-11910714D02*
X-1452380Y-12577380D01*
X-1452380Y-12005952D02*
X-1404761Y-11958333D01*
X-1309523Y-11910714D01*
X-1166666Y-11910714D01*
X-1071428Y-11958333D01*
X-1023809Y-12053571D01*
X-1023809Y-12577380D01*
X-642857Y-12958333D02*
X-595238Y-12910714D01*
X-500000Y-12767857D01*
X-452380Y-12672619D01*
X-404761Y-12529761D01*
X-357142Y-12291666D01*
X-357142Y-12101190D01*
X-404761Y-11863095D01*
X-452380Y-11720238D01*
X-500000Y-11625000D01*
X-595238Y-11482142D01*
X-642857Y-11434523D01*
D12*
X20850000Y-27500000D02*
X20850000Y-25500000D01*
X23650000Y-27500000D02*
X20850000Y-27500000D01*
X23650000Y-25500000D02*
X23650000Y-27500000D01*
X20850000Y-25500000D02*
X23650000Y-25500000D01*
X-11330000Y-16580000D02*
X-8670000Y-16580000D01*
X-11330000Y-16460000D02*
X-11330000Y-16580000D01*
X-8670000Y-16460000D02*
X-8670000Y-16580000D01*
X-8670000Y-13920000D02*
X-8670000Y-15250000D01*
X-10000000Y-13920000D02*
X-8670000Y-13920000D01*
X29040000Y-24715000D02*
X29040000Y-24825000D01*
X29040000Y-24825000D02*
X29640000Y-24825000D01*
X29040000Y-3285000D02*
X29040000Y-3175000D01*
X29040000Y-3175000D02*
X29640000Y-3175000D01*
X26450000Y-21950000D02*
X26850000Y-21750000D01*
X26850000Y-21750000D02*
X26450000Y-21550000D01*
X26450000Y-21550000D02*
X26450000Y-21950000D01*
X-11215000Y-2040000D02*
X-11325000Y-2040000D01*
X-11325000Y-2040000D02*
X-11325000Y-2640000D01*
X11215000Y-2040000D02*
X11325000Y-2040000D01*
X11325000Y-2040000D02*
X11325000Y-2640000D01*
X-8450000Y550000D02*
X-8250000Y150000D01*
X-8250000Y150000D02*
X-8050000Y550000D01*
X-8050000Y550000D02*
X-8450000Y550000D01*
X12950000Y-23574000D02*
X12950000Y-26234000D01*
X15550000Y-23574000D02*
X12950000Y-23574000D01*
X15550000Y-26234000D02*
X12950000Y-26234000D01*
X15550000Y-23574000D02*
X15550000Y-26234000D01*
X16820000Y-23574000D02*
X18150000Y-23574000D01*
X18150000Y-23574000D02*
X18150000Y-24904000D01*
D11*
X21416666Y-24152380D02*
X21416666Y-24866666D01*
X21369047Y-25009523D01*
X21273809Y-25104761D01*
X21130952Y-25152380D01*
X21035714Y-25152380D01*
X21892857Y-25152380D02*
X21892857Y-24152380D01*
X22273809Y-24152380D01*
X22369047Y-24200000D01*
X22416666Y-24247619D01*
X22464285Y-24342857D01*
X22464285Y-24485714D01*
X22416666Y-24580952D01*
X22369047Y-24628571D01*
X22273809Y-24676190D01*
X21892857Y-24676190D01*
X23416666Y-25152380D02*
X22845238Y-25152380D01*
X23130952Y-25152380D02*
X23130952Y-24152380D01*
X23035714Y-24295238D01*
X22940476Y-24390476D01*
X22845238Y-24438095D01*
X23352380Y-14333333D02*
X24066666Y-14333333D01*
X24209523Y-14380952D01*
X24304761Y-14476190D01*
X24352380Y-14619047D01*
X24352380Y-14714285D01*
X23352380Y-13952380D02*
X23352380Y-13333333D01*
X23733333Y-13666666D01*
X23733333Y-13523809D01*
X23780952Y-13428571D01*
X23828571Y-13380952D01*
X23923809Y-13333333D01*
X24161904Y-13333333D01*
X24257142Y-13380952D01*
X24304761Y-13428571D01*
X24352380Y-13523809D01*
X24352380Y-13809523D01*
X24304761Y-13904761D01*
X24257142Y-13952380D01*
X-333333Y3647619D02*
X-333333Y2933333D01*
X-380952Y2790476D01*
X-476190Y2695238D01*
X-619047Y2647619D01*
X-714285Y2647619D01*
X666666Y2647619D02*
X95238Y2647619D01*
X380952Y2647619D02*
X380952Y3647619D01*
X285714Y3504761D01*
X190476Y3409523D01*
X95238Y3361904D01*
X18602380Y-25237333D02*
X19316666Y-25237333D01*
X19459523Y-25284952D01*
X19554761Y-25380190D01*
X19602380Y-25523047D01*
X19602380Y-25618285D01*
X18935714Y-24332571D02*
X19602380Y-24332571D01*
X18554761Y-24570666D02*
X19269047Y-24808761D01*
X19269047Y-24189714D01*
M02*
