M48
; DRILL file {KiCad (5.1.6)-1} date 08/20/20 18:03:12
; FORMAT={-:-/ absolute / inch / decimal}
; #@! TF.CreationDate,2020-08-20T18:03:12-07:00
; #@! TF.GenerationSoftware,Kicad,Pcbnew,(5.1.6)-1
FMAT,2
INCH
T1C0.0157
T2C0.0394
%
G90
G05
T1
X-0.3937Y-0.0197
X-0.3937Y-1.0531
X-0.3363Y-0.7504
X-0.314Y-0.718
X-0.2821Y-0.2506
X-0.2429Y-0.2542
X-0.213Y-0.2798
X-0.1762Y-0.2937
X-0.1376Y-0.3015
X-0.1045Y-0.3265
X-0.066Y-0.3181
X-0.0302Y-0.3343
X0.0044Y-0.3531
X0.0434Y-0.3585
X0.0747Y-0.3824
X0.1125Y-0.3935
X0.1517Y-0.3898
X0.1835Y-0.413
X0.2228Y-0.4113
X0.2567Y-0.4313
X0.2955Y-0.4384
X0.3323Y-0.4522
X0.3717Y-0.4541
X0.3937Y-0.0197
X0.3937Y-1.0531
X0.4129Y-0.4523
X0.4524Y-0.4496
X0.4931Y-0.434
X0.532Y-0.4208
X0.5605Y-0.3932
X0.6254Y-0.375
X0.6624Y-0.3615
X0.7001Y-0.3501
X0.7286Y-0.3228
X0.7572Y-0.2913
X0.7579Y-0.8563
X0.7874Y-1.0335
X0.7991Y-0.2736
X0.8863Y-0.2569
X0.9341Y-0.2274
X1.0827Y-0.1772
X1.0827Y-0.9252
T2
X0.5622Y-0.9805
X0.6622Y-0.9805
X-0.3937Y-0.6004
T0
M30
