G04 #@! TF.GenerationSoftware,KiCad,Pcbnew,(5.1.6)-1*
G04 #@! TF.CreationDate,2020-08-20T18:03:11-07:00*
G04 #@! TF.ProjectId,dualscreen_sp,6475616c-7363-4726-9565-6e5f73702e6b,rev?*
G04 #@! TF.SameCoordinates,Original*
G04 #@! TF.FileFunction,Copper,L2,Bot*
G04 #@! TF.FilePolarity,Positive*
%FSLAX46Y46*%
G04 Gerber Fmt 4.6, Leading zero omitted, Abs format (unit mm)*
G04 Created by KiCad (PCBNEW (5.1.6)-1) date 2020-08-20 18:03:11*
%MOMM*%
%LPD*%
G01*
G04 APERTURE LIST*
G04 #@! TA.AperFunction,NonConductor*
%ADD10C,0.250000*%
G04 #@! TD*
G04 #@! TA.AperFunction,ComponentPad*
%ADD11R,1.700000X1.700000*%
G04 #@! TD*
G04 #@! TA.AperFunction,SMDPad,CuDef*
%ADD12R,2.300000X3.100000*%
G04 #@! TD*
G04 #@! TA.AperFunction,SMDPad,CuDef*
%ADD13R,0.300000X1.100000*%
G04 #@! TD*
G04 #@! TA.AperFunction,ComponentPad*
%ADD14O,1.700000X1.700000*%
G04 #@! TD*
G04 #@! TA.AperFunction,ViaPad*
%ADD15C,0.800000*%
G04 #@! TD*
G04 #@! TA.AperFunction,Conductor*
%ADD16C,0.250000*%
G04 #@! TD*
G04 #@! TA.AperFunction,Conductor*
%ADD17C,0.350000*%
G04 #@! TD*
G04 #@! TA.AperFunction,Conductor*
%ADD18C,0.254000*%
G04 #@! TD*
G04 APERTURE END LIST*
D10*
X18200809Y-26765380D02*
X17581761Y-26765380D01*
X17915095Y-27146333D01*
X17772238Y-27146333D01*
X17677000Y-27193952D01*
X17629380Y-27241571D01*
X17581761Y-27336809D01*
X17581761Y-27574904D01*
X17629380Y-27670142D01*
X17677000Y-27717761D01*
X17772238Y-27765380D01*
X18057952Y-27765380D01*
X18153190Y-27717761D01*
X18200809Y-27670142D01*
X16724619Y-27098714D02*
X16724619Y-27765380D01*
X16962714Y-26717761D02*
X17200809Y-27432047D01*
X16581761Y-27432047D01*
X14772238Y-26765380D02*
X14153190Y-26765380D01*
X14486523Y-27146333D01*
X14343666Y-27146333D01*
X14248428Y-27193952D01*
X14200809Y-27241571D01*
X14153190Y-27336809D01*
X14153190Y-27574904D01*
X14200809Y-27670142D01*
X14248428Y-27717761D01*
X14343666Y-27765380D01*
X14629380Y-27765380D01*
X14724619Y-27717761D01*
X14772238Y-27670142D01*
X13819857Y-26765380D02*
X13200809Y-26765380D01*
X13534142Y-27146333D01*
X13391285Y-27146333D01*
X13296047Y-27193952D01*
X13248428Y-27241571D01*
X13200809Y-27336809D01*
X13200809Y-27574904D01*
X13248428Y-27670142D01*
X13296047Y-27717761D01*
X13391285Y-27765380D01*
X13677000Y-27765380D01*
X13772238Y-27717761D01*
X13819857Y-27670142D01*
D11*
X-10000000Y-15250000D03*
D12*
X9920000Y-26650000D03*
X-9920000Y-26650000D03*
D13*
X8250000Y-28350000D03*
X7750000Y-28350000D03*
X7250000Y-28350000D03*
X6750000Y-28350000D03*
X6250000Y-28350000D03*
X5750000Y-28350000D03*
X5250000Y-28350000D03*
X4750000Y-28350000D03*
X4250000Y-28350000D03*
X3750000Y-28350000D03*
X3250000Y-28350000D03*
X2750000Y-28350000D03*
X2250000Y-28350000D03*
X1750000Y-28350000D03*
X1250000Y-28350000D03*
X750000Y-28350000D03*
X250000Y-28350000D03*
X-250000Y-28350000D03*
X-750000Y-28350000D03*
X-1250000Y-28350000D03*
X-1750000Y-28350000D03*
X-2250000Y-28350000D03*
X-2750000Y-28350000D03*
X-3250000Y-28350000D03*
X-3750000Y-28350000D03*
X-4250000Y-28350000D03*
X-4750000Y-28350000D03*
X-5250000Y-28350000D03*
X-5750000Y-28350000D03*
X-6250000Y-28350000D03*
X-6750000Y-28350000D03*
X-7250000Y-28350000D03*
X-7750000Y-28350000D03*
X-8250000Y-28350000D03*
D14*
X14280000Y-24904000D03*
D11*
X16820000Y-24904000D03*
D15*
X22512660Y-6524990D03*
X20296483Y-6950020D03*
X19232691Y-7400031D03*
X18507681Y-8199851D03*
X17782671Y-8891525D03*
X16825823Y-9182157D03*
X15886046Y-9523981D03*
X14237340Y-9987340D03*
X13512330Y-10688508D03*
X12523841Y-11023841D03*
X11492137Y-11419135D03*
X10487340Y-11487340D03*
X9440447Y-11534233D03*
X8441618Y-11485616D03*
X7504881Y-11135548D03*
X6521316Y-10954926D03*
X5659218Y-10448160D03*
X4660048Y-10489180D03*
X3852265Y-9899680D03*
X2856817Y-9995106D03*
X1897657Y-9712200D03*
X1102959Y-9105175D03*
X112191Y-8969522D03*
X-766057Y-8491293D03*
X-1677647Y-8080165D03*
X-2654863Y-8292467D03*
X-3495303Y-7658523D03*
X-4475377Y-7459831D03*
X-5411033Y-7106883D03*
X-10000000Y-26750000D03*
X10000000Y-26750000D03*
X27500000Y-23500000D03*
X27500000Y-4500000D03*
X10000000Y-500000D03*
X-10000000Y-500000D03*
X-6170475Y-6456290D03*
X19250000Y-21750000D03*
X20000000Y-26250000D03*
X-7166242Y-6364241D03*
X-7975010Y-18237340D03*
X-8542031Y-19061059D03*
X23725001Y-5774999D03*
D16*
X7750000Y-28350000D02*
X7750000Y-22250000D01*
X7750000Y-22250000D02*
X22512660Y-7487340D01*
X22512660Y-7487340D02*
X22512660Y-6524990D01*
X20296483Y-9067107D02*
X20296483Y-6950020D01*
X7250000Y-28350000D02*
X7250000Y-22113590D01*
X7250000Y-22113590D02*
X20296483Y-9067107D01*
X19232691Y-9267309D02*
X19232691Y-7400031D01*
X6750000Y-21750000D02*
X19232691Y-9267309D01*
X6750000Y-28350000D02*
X6750000Y-21750000D01*
X18507681Y-9355909D02*
X18507681Y-8199851D01*
X6250000Y-28350000D02*
X6250000Y-21613590D01*
X6250000Y-21613590D02*
X18507681Y-9355909D01*
X17782671Y-9444509D02*
X17782671Y-8891525D01*
X5750000Y-28350000D02*
X5750000Y-21477180D01*
X5750000Y-21477180D02*
X17782671Y-9444509D01*
X5250000Y-28350000D02*
X5250000Y-21250000D01*
X16825823Y-9674177D02*
X16825823Y-9182157D01*
X5250000Y-21250000D02*
X16825823Y-9674177D01*
X15886046Y-9977544D02*
X15886046Y-9523981D01*
X4750000Y-21113590D02*
X15886046Y-9977544D01*
X4750000Y-28350000D02*
X4750000Y-21113590D01*
X4250000Y-20977180D02*
X14237340Y-10989840D01*
X14237340Y-10989840D02*
X14237340Y-9987340D01*
X4250000Y-28350000D02*
X4250000Y-20977180D01*
X13512330Y-11060672D02*
X13512330Y-10688508D01*
X3750000Y-28350000D02*
X3750000Y-20823002D01*
X3750000Y-20823002D02*
X13512330Y-11060672D01*
X3250000Y-28350000D02*
X3250000Y-20686592D01*
X12523841Y-11412751D02*
X12523841Y-11023841D01*
X3250000Y-20686592D02*
X12523841Y-11412751D01*
X2750000Y-20250000D02*
X11492137Y-11507863D01*
X11492137Y-11507863D02*
X11492137Y-11419135D01*
X2750000Y-28350000D02*
X2750000Y-20250000D01*
X2250000Y-28350000D02*
X2250000Y-19750000D01*
X2250000Y-19750000D02*
X10487340Y-11512660D01*
X10487340Y-11512660D02*
X10487340Y-11487340D01*
X1750000Y-28350000D02*
X1750000Y-19224680D01*
X1750000Y-19224680D02*
X9440447Y-11534233D01*
X1250000Y-28350000D02*
X1250000Y-18677234D01*
X1250000Y-18677234D02*
X8441618Y-11485616D01*
X750000Y-28350000D02*
X750000Y-17890429D01*
X750000Y-17890429D02*
X7504881Y-11135548D01*
X250000Y-17226242D02*
X6521316Y-10954926D01*
X250000Y-28350000D02*
X250000Y-17226242D01*
X-250000Y-16500000D02*
X5659218Y-10590782D01*
X5659218Y-10590782D02*
X5659218Y-10448160D01*
X-250000Y-28350000D02*
X-250000Y-16500000D01*
X-750000Y-28350000D02*
X-750000Y-15899228D01*
X-750000Y-15899228D02*
X4660048Y-10489180D01*
X-1250000Y-28350000D02*
X-1250000Y-15250000D01*
X-1250000Y-15250000D02*
X3852265Y-10147735D01*
X3852265Y-10147735D02*
X3852265Y-9899680D01*
X-1750000Y-14601923D02*
X2856817Y-9995106D01*
X-1750000Y-28350000D02*
X-1750000Y-14601923D01*
X-2250000Y-28350000D02*
X-2250000Y-13859857D01*
X-2250000Y-13859857D02*
X1897657Y-9712200D01*
X-2750000Y-12958134D02*
X1102959Y-9105175D01*
X-2750000Y-28350000D02*
X-2750000Y-12958134D01*
X-3250000Y-12331713D02*
X112191Y-8969522D01*
X-3250000Y-28350000D02*
X-3250000Y-12331713D01*
X-3750000Y-11475236D02*
X-766057Y-8491293D01*
X-3750000Y-28350000D02*
X-3750000Y-11475236D01*
X-4250000Y-11218203D02*
X-1677647Y-8645850D01*
X-4250000Y-28350000D02*
X-4250000Y-11218203D01*
X-1677647Y-8645850D02*
X-1677647Y-8080165D01*
X-4750000Y-10387604D02*
X-2654863Y-8292467D01*
X-4750000Y-28350000D02*
X-4750000Y-10387604D01*
X-5250000Y-9413220D02*
X-3495303Y-7658523D01*
X-5250000Y-28350000D02*
X-5250000Y-9413220D01*
X-5750000Y-8734454D02*
X-4475377Y-7459831D01*
X-5750000Y-28350000D02*
X-5750000Y-8734454D01*
X-6250000Y-7945850D02*
X-5411033Y-7106883D01*
X-6250000Y-28350000D02*
X-6250000Y-7945850D01*
D17*
X-6750000Y-7035815D02*
X-6170475Y-6456290D01*
X-6750000Y-28350000D02*
X-6750000Y-7035815D01*
X19250000Y-21750000D02*
X19250000Y-25500000D01*
X19250000Y-25500000D02*
X20000000Y-26250000D01*
X-10000000Y-15250000D02*
X-10000000Y-7750000D01*
X-10000000Y-7750000D02*
X-7500000Y-5250000D01*
X-7500000Y-5250000D02*
X-7000000Y-5250000D01*
X-6170475Y-6079525D02*
X-6170475Y-6456290D01*
X-7000000Y-5250000D02*
X-6170475Y-6079525D01*
D16*
X-7250000Y-28350000D02*
X-7250000Y-6447999D01*
X-7250000Y-6447999D02*
X-7166242Y-6364241D01*
X-7750000Y-18462350D02*
X-7975010Y-18237340D01*
X-7750000Y-28350000D02*
X-7750000Y-18462350D01*
X-8250000Y-28350000D02*
X-8250000Y-19353090D01*
X-8250000Y-19353090D02*
X-8542031Y-19061059D01*
X23237661Y-7398749D02*
X23237661Y-6262339D01*
X8250000Y-28350000D02*
X8250000Y-22386410D01*
X8250000Y-22386410D02*
X23237661Y-7398749D01*
X23237661Y-6262339D02*
X23725001Y-5774999D01*
D18*
G36*
X30266278Y1981403D02*
G01*
X30305014Y1969708D01*
X30340747Y1950708D01*
X30372110Y1925130D01*
X30397904Y1893950D01*
X30417151Y1858353D01*
X30429117Y1819697D01*
X30436001Y1754201D01*
X30436000Y-28674999D01*
X30429403Y-28742278D01*
X30417708Y-28781016D01*
X30398710Y-28816745D01*
X30373128Y-28848111D01*
X30341951Y-28873903D01*
X30306355Y-28893150D01*
X30267695Y-28905117D01*
X30202211Y-28912000D01*
X8928367Y-28912000D01*
X8929549Y-28900000D01*
X8929549Y-28837505D01*
X9634250Y-28835000D01*
X9793000Y-28676250D01*
X9793000Y-26777000D01*
X10047000Y-26777000D01*
X10047000Y-28676250D01*
X10205750Y-28835000D01*
X11070000Y-28838072D01*
X11194482Y-28825812D01*
X11314180Y-28789502D01*
X11424494Y-28730537D01*
X11521185Y-28651185D01*
X11600537Y-28554494D01*
X11659502Y-28444180D01*
X11695812Y-28324482D01*
X11708072Y-28200000D01*
X11705000Y-26935750D01*
X11546250Y-26777000D01*
X10047000Y-26777000D01*
X9793000Y-26777000D01*
X9773000Y-26777000D01*
X9773000Y-26523000D01*
X9793000Y-26523000D01*
X9793000Y-24623750D01*
X10047000Y-24623750D01*
X10047000Y-26523000D01*
X11546250Y-26523000D01*
X11705000Y-26364250D01*
X11705876Y-26003500D01*
X12358334Y-26003500D01*
X12358334Y-28807500D01*
X18995667Y-28807500D01*
X18995667Y-26003500D01*
X18134197Y-26003500D01*
X18159239Y-25956650D01*
X18189374Y-25857310D01*
X18199549Y-25754000D01*
X18199549Y-24054000D01*
X18189374Y-23950690D01*
X18159239Y-23851350D01*
X18110304Y-23759798D01*
X18044448Y-23679552D01*
X17964202Y-23613696D01*
X17872650Y-23564761D01*
X17773310Y-23534626D01*
X17670000Y-23524451D01*
X15970000Y-23524451D01*
X15866690Y-23534626D01*
X15767350Y-23564761D01*
X15675798Y-23613696D01*
X15595552Y-23679552D01*
X15529696Y-23759798D01*
X15480761Y-23851350D01*
X15450626Y-23950690D01*
X15440451Y-24054000D01*
X15440451Y-24162202D01*
X15349586Y-24026213D01*
X15157787Y-23834414D01*
X14932254Y-23683718D01*
X14681656Y-23579917D01*
X14415623Y-23527000D01*
X14144377Y-23527000D01*
X13878344Y-23579917D01*
X13627746Y-23683718D01*
X13402213Y-23834414D01*
X13210414Y-24026213D01*
X13059718Y-24251746D01*
X12955917Y-24502344D01*
X12903000Y-24768377D01*
X12903000Y-25039623D01*
X12955917Y-25305656D01*
X13059718Y-25556254D01*
X13210414Y-25781787D01*
X13402213Y-25973586D01*
X13446983Y-26003500D01*
X12358334Y-26003500D01*
X11705876Y-26003500D01*
X11708072Y-25100000D01*
X11695812Y-24975518D01*
X11659502Y-24855820D01*
X11600537Y-24745506D01*
X11521185Y-24648815D01*
X11424494Y-24569463D01*
X11314180Y-24510498D01*
X11194482Y-24474188D01*
X11070000Y-24461928D01*
X10205750Y-24465000D01*
X10047000Y-24623750D01*
X9793000Y-24623750D01*
X9634250Y-24465000D01*
X8902000Y-24462397D01*
X8902000Y-22656476D01*
X23676049Y-7882428D01*
X23700925Y-7862013D01*
X23782402Y-7762733D01*
X23842944Y-7649466D01*
X23846631Y-7637313D01*
X23880226Y-7526564D01*
X23881471Y-7513922D01*
X23889661Y-7430771D01*
X23889661Y-7430764D01*
X23892814Y-7398750D01*
X23889661Y-7366735D01*
X23889661Y-6687407D01*
X23995397Y-6666375D01*
X24164100Y-6596495D01*
X24315929Y-6495047D01*
X24445049Y-6365927D01*
X24546497Y-6214098D01*
X24616377Y-6045395D01*
X24652001Y-5866300D01*
X24652001Y-5683698D01*
X24616377Y-5504603D01*
X24546497Y-5335900D01*
X24445049Y-5184071D01*
X24315929Y-5054951D01*
X24164100Y-4953503D01*
X23995397Y-4883623D01*
X23816302Y-4847999D01*
X23633700Y-4847999D01*
X23454605Y-4883623D01*
X23285902Y-4953503D01*
X23134073Y-5054951D01*
X23004953Y-5184071D01*
X22903505Y-5335900D01*
X22833625Y-5504603D01*
X22806067Y-5643146D01*
X22783056Y-5633614D01*
X22603961Y-5597990D01*
X22421359Y-5597990D01*
X22242264Y-5633614D01*
X22073561Y-5703494D01*
X21921732Y-5804942D01*
X21792612Y-5934062D01*
X21691164Y-6085891D01*
X21621284Y-6254594D01*
X21585660Y-6433689D01*
X21585660Y-6616291D01*
X21621284Y-6795386D01*
X21691164Y-6964089D01*
X21792612Y-7115918D01*
X21860660Y-7183966D01*
X21860660Y-7217273D01*
X20948483Y-8129450D01*
X20948483Y-7608996D01*
X21016531Y-7540948D01*
X21117979Y-7389119D01*
X21187859Y-7220416D01*
X21223483Y-7041321D01*
X21223483Y-6858719D01*
X21187859Y-6679624D01*
X21117979Y-6510921D01*
X21016531Y-6359092D01*
X20887411Y-6229972D01*
X20735582Y-6128524D01*
X20566879Y-6058644D01*
X20387784Y-6023020D01*
X20205182Y-6023020D01*
X20026087Y-6058644D01*
X19857384Y-6128524D01*
X19705555Y-6229972D01*
X19576435Y-6359092D01*
X19479620Y-6503987D01*
X19323992Y-6473031D01*
X19141390Y-6473031D01*
X18962295Y-6508655D01*
X18793592Y-6578535D01*
X18641763Y-6679983D01*
X18512643Y-6809103D01*
X18411195Y-6960932D01*
X18341315Y-7129635D01*
X18308562Y-7294297D01*
X18237285Y-7308475D01*
X18068582Y-7378355D01*
X17916753Y-7479803D01*
X17787633Y-7608923D01*
X17686185Y-7760752D01*
X17616305Y-7929455D01*
X17605949Y-7981516D01*
X17512275Y-8000149D01*
X17343572Y-8070029D01*
X17191743Y-8171477D01*
X17076384Y-8286836D01*
X16917124Y-8255157D01*
X16734522Y-8255157D01*
X16555427Y-8290781D01*
X16386724Y-8360661D01*
X16234895Y-8462109D01*
X16105775Y-8591229D01*
X16087316Y-8618855D01*
X15977347Y-8596981D01*
X15794745Y-8596981D01*
X15615650Y-8632605D01*
X15446947Y-8702485D01*
X15295118Y-8803933D01*
X15165998Y-8933053D01*
X15064550Y-9084882D01*
X14994670Y-9253585D01*
X14964225Y-9406644D01*
X14957388Y-9396412D01*
X14828268Y-9267292D01*
X14676439Y-9165844D01*
X14507736Y-9095964D01*
X14328641Y-9060340D01*
X14146039Y-9060340D01*
X13966944Y-9095964D01*
X13798241Y-9165844D01*
X13646412Y-9267292D01*
X13517292Y-9396412D01*
X13415844Y-9548241D01*
X13345964Y-9716944D01*
X13333642Y-9778890D01*
X13241934Y-9797132D01*
X13073231Y-9867012D01*
X12921402Y-9968460D01*
X12792282Y-10097580D01*
X12771937Y-10128029D01*
X12615142Y-10096841D01*
X12432540Y-10096841D01*
X12253445Y-10132465D01*
X12084742Y-10202345D01*
X11932913Y-10303793D01*
X11803793Y-10432913D01*
X11743014Y-10523876D01*
X11583438Y-10492135D01*
X11400836Y-10492135D01*
X11221741Y-10527759D01*
X11053038Y-10597639D01*
X10938700Y-10674037D01*
X10926439Y-10665844D01*
X10757736Y-10595964D01*
X10578641Y-10560340D01*
X10396039Y-10560340D01*
X10216944Y-10595964D01*
X10048241Y-10665844D01*
X9928803Y-10745649D01*
X9879546Y-10712737D01*
X9710843Y-10642857D01*
X9531748Y-10607233D01*
X9349146Y-10607233D01*
X9170051Y-10642857D01*
X9001348Y-10712737D01*
X8977413Y-10728730D01*
X8880717Y-10664120D01*
X8712014Y-10594240D01*
X8532919Y-10558616D01*
X8350317Y-10558616D01*
X8247894Y-10578989D01*
X8224929Y-10544620D01*
X8095809Y-10415500D01*
X7943980Y-10314052D01*
X7775277Y-10244172D01*
X7596182Y-10208548D01*
X7413580Y-10208548D01*
X7234485Y-10244172D01*
X7154620Y-10277254D01*
X7112244Y-10234878D01*
X6960415Y-10133430D01*
X6791712Y-10063550D01*
X6612617Y-10027926D01*
X6488528Y-10027926D01*
X6480714Y-10009061D01*
X6379266Y-9857232D01*
X6250146Y-9728112D01*
X6098317Y-9626664D01*
X5929614Y-9556784D01*
X5750519Y-9521160D01*
X5567917Y-9521160D01*
X5388822Y-9556784D01*
X5220119Y-9626664D01*
X5128937Y-9687589D01*
X5099147Y-9667684D01*
X4930444Y-9597804D01*
X4751349Y-9562180D01*
X4715845Y-9562180D01*
X4673761Y-9460581D01*
X4572313Y-9308752D01*
X4443193Y-9179632D01*
X4291364Y-9078184D01*
X4122661Y-9008304D01*
X3943566Y-8972680D01*
X3760964Y-8972680D01*
X3581869Y-9008304D01*
X3413166Y-9078184D01*
X3280134Y-9167073D01*
X3127213Y-9103730D01*
X2948118Y-9068106D01*
X2765516Y-9068106D01*
X2597883Y-9101450D01*
X2488585Y-8992152D01*
X2336756Y-8890704D01*
X2168053Y-8820824D01*
X1988958Y-8785200D01*
X1973798Y-8785200D01*
X1924455Y-8666076D01*
X1823007Y-8514247D01*
X1693887Y-8385127D01*
X1542058Y-8283679D01*
X1373355Y-8213799D01*
X1194260Y-8178175D01*
X1011658Y-8178175D01*
X832563Y-8213799D01*
X715807Y-8262162D01*
X703119Y-8249474D01*
X551290Y-8148026D01*
X382587Y-8078146D01*
X203492Y-8042522D01*
X48976Y-8042522D01*
X-46009Y-7900365D01*
X-175129Y-7771245D01*
X-326958Y-7669797D01*
X-495661Y-7599917D01*
X-674756Y-7564293D01*
X-857358Y-7564293D01*
X-901572Y-7573088D01*
X-957599Y-7489237D01*
X-1086719Y-7360117D01*
X-1238548Y-7258669D01*
X-1407251Y-7188789D01*
X-1586346Y-7153165D01*
X-1768948Y-7153165D01*
X-1948043Y-7188789D01*
X-2116746Y-7258669D01*
X-2268575Y-7360117D01*
X-2331492Y-7423034D01*
X-2384467Y-7401091D01*
X-2563562Y-7365467D01*
X-2613313Y-7365467D01*
X-2673807Y-7219424D01*
X-2775255Y-7067595D01*
X-2904375Y-6938475D01*
X-3056204Y-6837027D01*
X-3224907Y-6767147D01*
X-3404002Y-6731523D01*
X-3586604Y-6731523D01*
X-3765699Y-6767147D01*
X-3830318Y-6793914D01*
X-3884449Y-6739783D01*
X-4036278Y-6638335D01*
X-4204981Y-6568455D01*
X-4384076Y-6532831D01*
X-4566678Y-6532831D01*
X-4666449Y-6552677D01*
X-4690985Y-6515955D01*
X-4820105Y-6386835D01*
X-4971934Y-6285387D01*
X-5140637Y-6215507D01*
X-5319732Y-6179883D01*
X-5502334Y-6179883D01*
X-5681429Y-6215507D01*
X-5850132Y-6285387D01*
X-6001961Y-6386835D01*
X-6131081Y-6515955D01*
X-6232529Y-6667784D01*
X-6302409Y-6836487D01*
X-6338033Y-7015582D01*
X-6338033Y-7111817D01*
X-6598000Y-7371784D01*
X-6598000Y-7099447D01*
X-6575314Y-7084289D01*
X-6446194Y-6955169D01*
X-6344746Y-6803340D01*
X-6274866Y-6634637D01*
X-6239242Y-6455542D01*
X-6239242Y-6272940D01*
X-6274866Y-6093845D01*
X-6344746Y-5925142D01*
X-6446194Y-5773313D01*
X-6575314Y-5644193D01*
X-6727143Y-5542745D01*
X-6895846Y-5472865D01*
X-7074941Y-5437241D01*
X-7257543Y-5437241D01*
X-7436638Y-5472865D01*
X-7605341Y-5542745D01*
X-7757170Y-5644193D01*
X-7886290Y-5773313D01*
X-7987738Y-5925142D01*
X-8057618Y-6093845D01*
X-8093242Y-6272940D01*
X-8093242Y-6455542D01*
X-8057618Y-6634637D01*
X-7987738Y-6803340D01*
X-7901999Y-6931659D01*
X-7901999Y-17310340D01*
X-8066311Y-17310340D01*
X-8245406Y-17345964D01*
X-8414109Y-17415844D01*
X-8565938Y-17517292D01*
X-8695058Y-17646412D01*
X-8796506Y-17798241D01*
X-8866386Y-17966944D01*
X-8902010Y-18146039D01*
X-8902010Y-18206790D01*
X-8981130Y-18239563D01*
X-9132959Y-18341011D01*
X-9262079Y-18470131D01*
X-9363527Y-18621960D01*
X-9433407Y-18790663D01*
X-9469031Y-18969758D01*
X-9469031Y-19152360D01*
X-9433407Y-19331455D01*
X-9363527Y-19500158D01*
X-9262079Y-19651987D01*
X-9132959Y-19781107D01*
X-8981130Y-19882555D01*
X-8901999Y-19915333D01*
X-8902000Y-24462397D01*
X-9634250Y-24465000D01*
X-9793000Y-24623750D01*
X-9793000Y-26523000D01*
X-9773000Y-26523000D01*
X-9773000Y-26777000D01*
X-9793000Y-26777000D01*
X-9793000Y-28676250D01*
X-9634250Y-28835000D01*
X-8929549Y-28837505D01*
X-8929549Y-28900000D01*
X-8928367Y-28912000D01*
X-10894999Y-28912000D01*
X-10962278Y-28905403D01*
X-11001016Y-28893708D01*
X-11036745Y-28874710D01*
X-11068111Y-28849128D01*
X-11077902Y-28837294D01*
X-11070000Y-28838072D01*
X-10205750Y-28835000D01*
X-10047000Y-28676250D01*
X-10047000Y-26777000D01*
X-10067000Y-26777000D01*
X-10067000Y-26523000D01*
X-10047000Y-26523000D01*
X-10047000Y-24623750D01*
X-10205750Y-24465000D01*
X-11070000Y-24461928D01*
X-11132000Y-24468034D01*
X-11132000Y-16669286D01*
X-11094180Y-16689502D01*
X-10974482Y-16725812D01*
X-10850000Y-16738072D01*
X-10285750Y-16735000D01*
X-10127000Y-16576250D01*
X-10127000Y-15377000D01*
X-9873000Y-15377000D01*
X-9873000Y-16576250D01*
X-9714250Y-16735000D01*
X-9150000Y-16738072D01*
X-9025518Y-16725812D01*
X-8905820Y-16689502D01*
X-8795506Y-16630537D01*
X-8698815Y-16551185D01*
X-8619463Y-16454494D01*
X-8560498Y-16344180D01*
X-8524188Y-16224482D01*
X-8511928Y-16100000D01*
X-8515000Y-15535750D01*
X-8673750Y-15377000D01*
X-9873000Y-15377000D01*
X-10127000Y-15377000D01*
X-10147000Y-15377000D01*
X-10147000Y-15123000D01*
X-10127000Y-15123000D01*
X-10127000Y-13923750D01*
X-9873000Y-13923750D01*
X-9873000Y-15123000D01*
X-8673750Y-15123000D01*
X-8515000Y-14964250D01*
X-8511928Y-14400000D01*
X-8524188Y-14275518D01*
X-8560498Y-14155820D01*
X-8619463Y-14045506D01*
X-8698815Y-13948815D01*
X-8795506Y-13869463D01*
X-8905820Y-13810498D01*
X-9025518Y-13774188D01*
X-9150000Y-13761928D01*
X-9714250Y-13765000D01*
X-9873000Y-13923750D01*
X-10127000Y-13923750D01*
X-10285750Y-13765000D01*
X-10850000Y-13761928D01*
X-10974482Y-13774188D01*
X-11094180Y-13810498D01*
X-11132000Y-13830714D01*
X-11132000Y1750999D01*
X-11125403Y1818278D01*
X-11113708Y1857014D01*
X-11094708Y1892747D01*
X-11069130Y1924110D01*
X-11037950Y1949904D01*
X-11002353Y1969151D01*
X-10963697Y1981117D01*
X-10898211Y1988000D01*
X30198999Y1988000D01*
X30266278Y1981403D01*
G37*
X30266278Y1981403D02*
X30305014Y1969708D01*
X30340747Y1950708D01*
X30372110Y1925130D01*
X30397904Y1893950D01*
X30417151Y1858353D01*
X30429117Y1819697D01*
X30436001Y1754201D01*
X30436000Y-28674999D01*
X30429403Y-28742278D01*
X30417708Y-28781016D01*
X30398710Y-28816745D01*
X30373128Y-28848111D01*
X30341951Y-28873903D01*
X30306355Y-28893150D01*
X30267695Y-28905117D01*
X30202211Y-28912000D01*
X8928367Y-28912000D01*
X8929549Y-28900000D01*
X8929549Y-28837505D01*
X9634250Y-28835000D01*
X9793000Y-28676250D01*
X9793000Y-26777000D01*
X10047000Y-26777000D01*
X10047000Y-28676250D01*
X10205750Y-28835000D01*
X11070000Y-28838072D01*
X11194482Y-28825812D01*
X11314180Y-28789502D01*
X11424494Y-28730537D01*
X11521185Y-28651185D01*
X11600537Y-28554494D01*
X11659502Y-28444180D01*
X11695812Y-28324482D01*
X11708072Y-28200000D01*
X11705000Y-26935750D01*
X11546250Y-26777000D01*
X10047000Y-26777000D01*
X9793000Y-26777000D01*
X9773000Y-26777000D01*
X9773000Y-26523000D01*
X9793000Y-26523000D01*
X9793000Y-24623750D01*
X10047000Y-24623750D01*
X10047000Y-26523000D01*
X11546250Y-26523000D01*
X11705000Y-26364250D01*
X11705876Y-26003500D01*
X12358334Y-26003500D01*
X12358334Y-28807500D01*
X18995667Y-28807500D01*
X18995667Y-26003500D01*
X18134197Y-26003500D01*
X18159239Y-25956650D01*
X18189374Y-25857310D01*
X18199549Y-25754000D01*
X18199549Y-24054000D01*
X18189374Y-23950690D01*
X18159239Y-23851350D01*
X18110304Y-23759798D01*
X18044448Y-23679552D01*
X17964202Y-23613696D01*
X17872650Y-23564761D01*
X17773310Y-23534626D01*
X17670000Y-23524451D01*
X15970000Y-23524451D01*
X15866690Y-23534626D01*
X15767350Y-23564761D01*
X15675798Y-23613696D01*
X15595552Y-23679552D01*
X15529696Y-23759798D01*
X15480761Y-23851350D01*
X15450626Y-23950690D01*
X15440451Y-24054000D01*
X15440451Y-24162202D01*
X15349586Y-24026213D01*
X15157787Y-23834414D01*
X14932254Y-23683718D01*
X14681656Y-23579917D01*
X14415623Y-23527000D01*
X14144377Y-23527000D01*
X13878344Y-23579917D01*
X13627746Y-23683718D01*
X13402213Y-23834414D01*
X13210414Y-24026213D01*
X13059718Y-24251746D01*
X12955917Y-24502344D01*
X12903000Y-24768377D01*
X12903000Y-25039623D01*
X12955917Y-25305656D01*
X13059718Y-25556254D01*
X13210414Y-25781787D01*
X13402213Y-25973586D01*
X13446983Y-26003500D01*
X12358334Y-26003500D01*
X11705876Y-26003500D01*
X11708072Y-25100000D01*
X11695812Y-24975518D01*
X11659502Y-24855820D01*
X11600537Y-24745506D01*
X11521185Y-24648815D01*
X11424494Y-24569463D01*
X11314180Y-24510498D01*
X11194482Y-24474188D01*
X11070000Y-24461928D01*
X10205750Y-24465000D01*
X10047000Y-24623750D01*
X9793000Y-24623750D01*
X9634250Y-24465000D01*
X8902000Y-24462397D01*
X8902000Y-22656476D01*
X23676049Y-7882428D01*
X23700925Y-7862013D01*
X23782402Y-7762733D01*
X23842944Y-7649466D01*
X23846631Y-7637313D01*
X23880226Y-7526564D01*
X23881471Y-7513922D01*
X23889661Y-7430771D01*
X23889661Y-7430764D01*
X23892814Y-7398750D01*
X23889661Y-7366735D01*
X23889661Y-6687407D01*
X23995397Y-6666375D01*
X24164100Y-6596495D01*
X24315929Y-6495047D01*
X24445049Y-6365927D01*
X24546497Y-6214098D01*
X24616377Y-6045395D01*
X24652001Y-5866300D01*
X24652001Y-5683698D01*
X24616377Y-5504603D01*
X24546497Y-5335900D01*
X24445049Y-5184071D01*
X24315929Y-5054951D01*
X24164100Y-4953503D01*
X23995397Y-4883623D01*
X23816302Y-4847999D01*
X23633700Y-4847999D01*
X23454605Y-4883623D01*
X23285902Y-4953503D01*
X23134073Y-5054951D01*
X23004953Y-5184071D01*
X22903505Y-5335900D01*
X22833625Y-5504603D01*
X22806067Y-5643146D01*
X22783056Y-5633614D01*
X22603961Y-5597990D01*
X22421359Y-5597990D01*
X22242264Y-5633614D01*
X22073561Y-5703494D01*
X21921732Y-5804942D01*
X21792612Y-5934062D01*
X21691164Y-6085891D01*
X21621284Y-6254594D01*
X21585660Y-6433689D01*
X21585660Y-6616291D01*
X21621284Y-6795386D01*
X21691164Y-6964089D01*
X21792612Y-7115918D01*
X21860660Y-7183966D01*
X21860660Y-7217273D01*
X20948483Y-8129450D01*
X20948483Y-7608996D01*
X21016531Y-7540948D01*
X21117979Y-7389119D01*
X21187859Y-7220416D01*
X21223483Y-7041321D01*
X21223483Y-6858719D01*
X21187859Y-6679624D01*
X21117979Y-6510921D01*
X21016531Y-6359092D01*
X20887411Y-6229972D01*
X20735582Y-6128524D01*
X20566879Y-6058644D01*
X20387784Y-6023020D01*
X20205182Y-6023020D01*
X20026087Y-6058644D01*
X19857384Y-6128524D01*
X19705555Y-6229972D01*
X19576435Y-6359092D01*
X19479620Y-6503987D01*
X19323992Y-6473031D01*
X19141390Y-6473031D01*
X18962295Y-6508655D01*
X18793592Y-6578535D01*
X18641763Y-6679983D01*
X18512643Y-6809103D01*
X18411195Y-6960932D01*
X18341315Y-7129635D01*
X18308562Y-7294297D01*
X18237285Y-7308475D01*
X18068582Y-7378355D01*
X17916753Y-7479803D01*
X17787633Y-7608923D01*
X17686185Y-7760752D01*
X17616305Y-7929455D01*
X17605949Y-7981516D01*
X17512275Y-8000149D01*
X17343572Y-8070029D01*
X17191743Y-8171477D01*
X17076384Y-8286836D01*
X16917124Y-8255157D01*
X16734522Y-8255157D01*
X16555427Y-8290781D01*
X16386724Y-8360661D01*
X16234895Y-8462109D01*
X16105775Y-8591229D01*
X16087316Y-8618855D01*
X15977347Y-8596981D01*
X15794745Y-8596981D01*
X15615650Y-8632605D01*
X15446947Y-8702485D01*
X15295118Y-8803933D01*
X15165998Y-8933053D01*
X15064550Y-9084882D01*
X14994670Y-9253585D01*
X14964225Y-9406644D01*
X14957388Y-9396412D01*
X14828268Y-9267292D01*
X14676439Y-9165844D01*
X14507736Y-9095964D01*
X14328641Y-9060340D01*
X14146039Y-9060340D01*
X13966944Y-9095964D01*
X13798241Y-9165844D01*
X13646412Y-9267292D01*
X13517292Y-9396412D01*
X13415844Y-9548241D01*
X13345964Y-9716944D01*
X13333642Y-9778890D01*
X13241934Y-9797132D01*
X13073231Y-9867012D01*
X12921402Y-9968460D01*
X12792282Y-10097580D01*
X12771937Y-10128029D01*
X12615142Y-10096841D01*
X12432540Y-10096841D01*
X12253445Y-10132465D01*
X12084742Y-10202345D01*
X11932913Y-10303793D01*
X11803793Y-10432913D01*
X11743014Y-10523876D01*
X11583438Y-10492135D01*
X11400836Y-10492135D01*
X11221741Y-10527759D01*
X11053038Y-10597639D01*
X10938700Y-10674037D01*
X10926439Y-10665844D01*
X10757736Y-10595964D01*
X10578641Y-10560340D01*
X10396039Y-10560340D01*
X10216944Y-10595964D01*
X10048241Y-10665844D01*
X9928803Y-10745649D01*
X9879546Y-10712737D01*
X9710843Y-10642857D01*
X9531748Y-10607233D01*
X9349146Y-10607233D01*
X9170051Y-10642857D01*
X9001348Y-10712737D01*
X8977413Y-10728730D01*
X8880717Y-10664120D01*
X8712014Y-10594240D01*
X8532919Y-10558616D01*
X8350317Y-10558616D01*
X8247894Y-10578989D01*
X8224929Y-10544620D01*
X8095809Y-10415500D01*
X7943980Y-10314052D01*
X7775277Y-10244172D01*
X7596182Y-10208548D01*
X7413580Y-10208548D01*
X7234485Y-10244172D01*
X7154620Y-10277254D01*
X7112244Y-10234878D01*
X6960415Y-10133430D01*
X6791712Y-10063550D01*
X6612617Y-10027926D01*
X6488528Y-10027926D01*
X6480714Y-10009061D01*
X6379266Y-9857232D01*
X6250146Y-9728112D01*
X6098317Y-9626664D01*
X5929614Y-9556784D01*
X5750519Y-9521160D01*
X5567917Y-9521160D01*
X5388822Y-9556784D01*
X5220119Y-9626664D01*
X5128937Y-9687589D01*
X5099147Y-9667684D01*
X4930444Y-9597804D01*
X4751349Y-9562180D01*
X4715845Y-9562180D01*
X4673761Y-9460581D01*
X4572313Y-9308752D01*
X4443193Y-9179632D01*
X4291364Y-9078184D01*
X4122661Y-9008304D01*
X3943566Y-8972680D01*
X3760964Y-8972680D01*
X3581869Y-9008304D01*
X3413166Y-9078184D01*
X3280134Y-9167073D01*
X3127213Y-9103730D01*
X2948118Y-9068106D01*
X2765516Y-9068106D01*
X2597883Y-9101450D01*
X2488585Y-8992152D01*
X2336756Y-8890704D01*
X2168053Y-8820824D01*
X1988958Y-8785200D01*
X1973798Y-8785200D01*
X1924455Y-8666076D01*
X1823007Y-8514247D01*
X1693887Y-8385127D01*
X1542058Y-8283679D01*
X1373355Y-8213799D01*
X1194260Y-8178175D01*
X1011658Y-8178175D01*
X832563Y-8213799D01*
X715807Y-8262162D01*
X703119Y-8249474D01*
X551290Y-8148026D01*
X382587Y-8078146D01*
X203492Y-8042522D01*
X48976Y-8042522D01*
X-46009Y-7900365D01*
X-175129Y-7771245D01*
X-326958Y-7669797D01*
X-495661Y-7599917D01*
X-674756Y-7564293D01*
X-857358Y-7564293D01*
X-901572Y-7573088D01*
X-957599Y-7489237D01*
X-1086719Y-7360117D01*
X-1238548Y-7258669D01*
X-1407251Y-7188789D01*
X-1586346Y-7153165D01*
X-1768948Y-7153165D01*
X-1948043Y-7188789D01*
X-2116746Y-7258669D01*
X-2268575Y-7360117D01*
X-2331492Y-7423034D01*
X-2384467Y-7401091D01*
X-2563562Y-7365467D01*
X-2613313Y-7365467D01*
X-2673807Y-7219424D01*
X-2775255Y-7067595D01*
X-2904375Y-6938475D01*
X-3056204Y-6837027D01*
X-3224907Y-6767147D01*
X-3404002Y-6731523D01*
X-3586604Y-6731523D01*
X-3765699Y-6767147D01*
X-3830318Y-6793914D01*
X-3884449Y-6739783D01*
X-4036278Y-6638335D01*
X-4204981Y-6568455D01*
X-4384076Y-6532831D01*
X-4566678Y-6532831D01*
X-4666449Y-6552677D01*
X-4690985Y-6515955D01*
X-4820105Y-6386835D01*
X-4971934Y-6285387D01*
X-5140637Y-6215507D01*
X-5319732Y-6179883D01*
X-5502334Y-6179883D01*
X-5681429Y-6215507D01*
X-5850132Y-6285387D01*
X-6001961Y-6386835D01*
X-6131081Y-6515955D01*
X-6232529Y-6667784D01*
X-6302409Y-6836487D01*
X-6338033Y-7015582D01*
X-6338033Y-7111817D01*
X-6598000Y-7371784D01*
X-6598000Y-7099447D01*
X-6575314Y-7084289D01*
X-6446194Y-6955169D01*
X-6344746Y-6803340D01*
X-6274866Y-6634637D01*
X-6239242Y-6455542D01*
X-6239242Y-6272940D01*
X-6274866Y-6093845D01*
X-6344746Y-5925142D01*
X-6446194Y-5773313D01*
X-6575314Y-5644193D01*
X-6727143Y-5542745D01*
X-6895846Y-5472865D01*
X-7074941Y-5437241D01*
X-7257543Y-5437241D01*
X-7436638Y-5472865D01*
X-7605341Y-5542745D01*
X-7757170Y-5644193D01*
X-7886290Y-5773313D01*
X-7987738Y-5925142D01*
X-8057618Y-6093845D01*
X-8093242Y-6272940D01*
X-8093242Y-6455542D01*
X-8057618Y-6634637D01*
X-7987738Y-6803340D01*
X-7901999Y-6931659D01*
X-7901999Y-17310340D01*
X-8066311Y-17310340D01*
X-8245406Y-17345964D01*
X-8414109Y-17415844D01*
X-8565938Y-17517292D01*
X-8695058Y-17646412D01*
X-8796506Y-17798241D01*
X-8866386Y-17966944D01*
X-8902010Y-18146039D01*
X-8902010Y-18206790D01*
X-8981130Y-18239563D01*
X-9132959Y-18341011D01*
X-9262079Y-18470131D01*
X-9363527Y-18621960D01*
X-9433407Y-18790663D01*
X-9469031Y-18969758D01*
X-9469031Y-19152360D01*
X-9433407Y-19331455D01*
X-9363527Y-19500158D01*
X-9262079Y-19651987D01*
X-9132959Y-19781107D01*
X-8981130Y-19882555D01*
X-8901999Y-19915333D01*
X-8902000Y-24462397D01*
X-9634250Y-24465000D01*
X-9793000Y-24623750D01*
X-9793000Y-26523000D01*
X-9773000Y-26523000D01*
X-9773000Y-26777000D01*
X-9793000Y-26777000D01*
X-9793000Y-28676250D01*
X-9634250Y-28835000D01*
X-8929549Y-28837505D01*
X-8929549Y-28900000D01*
X-8928367Y-28912000D01*
X-10894999Y-28912000D01*
X-10962278Y-28905403D01*
X-11001016Y-28893708D01*
X-11036745Y-28874710D01*
X-11068111Y-28849128D01*
X-11077902Y-28837294D01*
X-11070000Y-28838072D01*
X-10205750Y-28835000D01*
X-10047000Y-28676250D01*
X-10047000Y-26777000D01*
X-10067000Y-26777000D01*
X-10067000Y-26523000D01*
X-10047000Y-26523000D01*
X-10047000Y-24623750D01*
X-10205750Y-24465000D01*
X-11070000Y-24461928D01*
X-11132000Y-24468034D01*
X-11132000Y-16669286D01*
X-11094180Y-16689502D01*
X-10974482Y-16725812D01*
X-10850000Y-16738072D01*
X-10285750Y-16735000D01*
X-10127000Y-16576250D01*
X-10127000Y-15377000D01*
X-9873000Y-15377000D01*
X-9873000Y-16576250D01*
X-9714250Y-16735000D01*
X-9150000Y-16738072D01*
X-9025518Y-16725812D01*
X-8905820Y-16689502D01*
X-8795506Y-16630537D01*
X-8698815Y-16551185D01*
X-8619463Y-16454494D01*
X-8560498Y-16344180D01*
X-8524188Y-16224482D01*
X-8511928Y-16100000D01*
X-8515000Y-15535750D01*
X-8673750Y-15377000D01*
X-9873000Y-15377000D01*
X-10127000Y-15377000D01*
X-10147000Y-15377000D01*
X-10147000Y-15123000D01*
X-10127000Y-15123000D01*
X-10127000Y-13923750D01*
X-9873000Y-13923750D01*
X-9873000Y-15123000D01*
X-8673750Y-15123000D01*
X-8515000Y-14964250D01*
X-8511928Y-14400000D01*
X-8524188Y-14275518D01*
X-8560498Y-14155820D01*
X-8619463Y-14045506D01*
X-8698815Y-13948815D01*
X-8795506Y-13869463D01*
X-8905820Y-13810498D01*
X-9025518Y-13774188D01*
X-9150000Y-13761928D01*
X-9714250Y-13765000D01*
X-9873000Y-13923750D01*
X-10127000Y-13923750D01*
X-10285750Y-13765000D01*
X-10850000Y-13761928D01*
X-10974482Y-13774188D01*
X-11094180Y-13810498D01*
X-11132000Y-13830714D01*
X-11132000Y1750999D01*
X-11125403Y1818278D01*
X-11113708Y1857014D01*
X-11094708Y1892747D01*
X-11069130Y1924110D01*
X-11037950Y1949904D01*
X-11002353Y1969151D01*
X-10963697Y1981117D01*
X-10898211Y1988000D01*
X30198999Y1988000D01*
X30266278Y1981403D01*
M02*
