G04 #@! TF.GenerationSoftware,KiCad,Pcbnew,(5.1.6)-1*
G04 #@! TF.CreationDate,2020-08-20T18:03:11-07:00*
G04 #@! TF.ProjectId,dualscreen_sp,6475616c-7363-4726-9565-6e5f73702e6b,rev?*
G04 #@! TF.SameCoordinates,Original*
G04 #@! TF.FileFunction,Soldermask,Bot*
G04 #@! TF.FilePolarity,Negative*
%FSLAX46Y46*%
G04 Gerber Fmt 4.6, Leading zero omitted, Abs format (unit mm)*
G04 Created by KiCad (PCBNEW (5.1.6)-1) date 2020-08-20 18:03:11*
%MOMM*%
%LPD*%
G01*
G04 APERTURE LIST*
%ADD10C,0.100000*%
G04 APERTURE END LIST*
D10*
G36*
X8451000Y-28951000D02*
G01*
X-8451000Y-28951000D01*
X-8451000Y-27749000D01*
X8451000Y-27749000D01*
X8451000Y-28951000D01*
G37*
G36*
X11121000Y-28251000D02*
G01*
X8719000Y-28251000D01*
X8719000Y-25049000D01*
X11121000Y-25049000D01*
X11121000Y-28251000D01*
G37*
G36*
X-8719000Y-28251000D02*
G01*
X-11121000Y-28251000D01*
X-11121000Y-25049000D01*
X-8719000Y-25049000D01*
X-8719000Y-28251000D01*
G37*
G36*
X14393512Y-24007927D02*
G01*
X14542812Y-24037624D01*
X14706784Y-24105544D01*
X14854354Y-24204147D01*
X14979853Y-24329646D01*
X15078456Y-24477216D01*
X15146376Y-24641188D01*
X15181000Y-24815259D01*
X15181000Y-24992741D01*
X15146376Y-25166812D01*
X15078456Y-25330784D01*
X14979853Y-25478354D01*
X14854354Y-25603853D01*
X14706784Y-25702456D01*
X14542812Y-25770376D01*
X14393512Y-25800073D01*
X14368742Y-25805000D01*
X14191258Y-25805000D01*
X14166488Y-25800073D01*
X14017188Y-25770376D01*
X13853216Y-25702456D01*
X13705646Y-25603853D01*
X13580147Y-25478354D01*
X13481544Y-25330784D01*
X13413624Y-25166812D01*
X13379000Y-24992741D01*
X13379000Y-24815259D01*
X13413624Y-24641188D01*
X13481544Y-24477216D01*
X13580147Y-24329646D01*
X13705646Y-24204147D01*
X13853216Y-24105544D01*
X14017188Y-24037624D01*
X14166488Y-24007927D01*
X14191258Y-24003000D01*
X14368742Y-24003000D01*
X14393512Y-24007927D01*
G37*
G36*
X17721000Y-25805000D02*
G01*
X15919000Y-25805000D01*
X15919000Y-24003000D01*
X17721000Y-24003000D01*
X17721000Y-25805000D01*
G37*
G36*
X-9099000Y-16151000D02*
G01*
X-10901000Y-16151000D01*
X-10901000Y-14349000D01*
X-9099000Y-14349000D01*
X-9099000Y-16151000D01*
G37*
M02*
